<svg width="541" height="214" viewBox="0 0 541 214" fill="none" xmlns="http://www.w3.org/2000/svg">
<g filter="url(#filter0_b_0_231)">
<path d="M125.479 0.678223H25.0069C11.4219 0.678223 0.40918 11.691 0.40918 25.2759V125.749C0.40918 139.333 11.4219 150.346 25.0069 150.346H125.479C139.064 150.346 150.077 139.333 150.077 125.749V25.2759C150.077 11.691 139.064 0.678223 125.479 0.678223Z" fill="#FEF6E6"/>
<path d="M25.0069 1.61365H125.479C138.548 1.61365 149.142 12.2076 149.142 25.2759V125.749C149.142 138.817 138.548 149.411 125.479 149.411H25.0069C11.9386 149.411 1.3446 138.817 1.3446 125.749V25.2759C1.3446 12.2076 11.9386 1.61365 25.0069 1.61365Z" stroke="white" stroke-width="1.87085"/>
</g>
<g filter="url(#filter1_di_0_231)">
<path d="M104.387 38.0952H101.287V41.8904H96.4495V38.0952H56.5202V41.6766H51.7629V38.0952H46.0968C43.9066 38.0952 41.806 38.9653 40.2572 40.5141C38.7085 42.0628 37.8384 44.1634 37.8384 46.3537V104.671C37.8384 106.861 38.7085 108.962 40.2572 110.51C41.806 112.059 43.9066 112.929 46.0968 112.929H104.387C106.577 112.929 108.678 112.059 110.227 110.51C111.776 108.962 112.646 106.861 112.646 104.671V46.3537C112.646 44.1634 111.776 42.0628 110.227 40.5141C108.678 38.9653 106.577 38.0952 104.387 38.0952ZM75.7632 101.811C72.4542 101.811 69.2194 100.83 66.4681 98.9914C63.7167 97.153 61.5723 94.54 60.306 91.4828C59.0397 88.4257 58.7084 85.0617 59.3539 81.8163C59.9995 78.5708 61.5929 75.5897 63.9328 73.2499C66.2726 70.91 69.2537 69.3166 72.4992 68.671C75.7446 68.0255 79.1086 68.3568 82.1658 69.6231C85.2229 70.8894 87.8359 73.0338 89.6743 75.7852C91.5127 78.5365 92.4939 81.7712 92.4939 85.0803C92.4975 87.2784 92.0671 89.4556 91.2276 91.487C90.388 93.5185 89.1558 95.3643 87.6015 96.9186C86.0472 98.4728 84.2014 99.7051 82.1699 100.545C80.1385 101.384 77.9613 101.815 75.7632 101.811ZM107.14 54.9596C107.14 55.3991 106.965 55.8205 106.655 56.1313C106.344 56.4421 105.922 56.6166 105.483 56.6166H46.0968C45.6574 56.6166 45.2359 56.4421 44.9251 56.1313C44.6144 55.8205 44.4398 55.3991 44.4398 54.9596V49.4539C44.4398 49.0145 44.6144 48.593 44.9251 48.2822C45.2359 47.9715 45.6574 47.7969 46.0968 47.7969H105.483C105.922 47.7969 106.344 47.9715 106.655 48.2822C106.965 48.593 107.14 49.0145 107.14 49.4539V54.9596ZM82.819 84.1448H76.565V77.6503C76.565 77.2605 76.4101 76.8866 76.1344 76.6109C75.8588 76.3352 75.4849 76.1804 75.095 76.1804C74.7052 76.1804 74.3313 76.3352 74.0556 76.6109C73.7799 76.8866 73.6251 77.2605 73.6251 77.6503V87.0848H82.819C83.2088 87.0848 83.5827 86.9299 83.8584 86.6542C84.1341 86.3785 84.2889 86.0047 84.2889 85.6148C84.2889 85.2249 84.1341 84.8511 83.8584 84.5754C83.5827 84.2997 83.2088 84.1448 82.819 84.1448Z" fill="#F8B636"/>
</g>
<path d="M6.06276 162.508C6.01083 162.508 5.96631 162.53 5.92922 162.567C5.89213 162.612 5.87729 162.656 5.87729 162.708V163.576C5.87729 163.628 5.89213 163.673 5.92922 163.702C5.95889 163.739 6.00341 163.754 6.06276 163.754H9.08221V172.657C9.08221 172.783 9.14156 172.842 9.26768 172.842H10.1505C10.2692 172.842 10.3286 172.783 10.3286 172.657V163.754H13.3406C13.4593 163.754 13.5187 163.695 13.5187 163.576V162.708C13.5187 162.575 13.4593 162.508 13.3406 162.508H6.06276ZM15.3956 162.07C15.1805 162.07 15.0024 162.144 14.854 162.293C14.7057 162.441 14.6389 162.619 14.6389 162.827C14.6389 163.035 14.7131 163.22 14.8615 163.368C15.0098 163.517 15.1879 163.591 15.3956 163.591C15.6033 163.591 15.7814 163.517 15.9298 163.368C16.0782 163.22 16.1598 163.035 16.1598 162.827C16.1598 162.619 16.0856 162.441 15.9372 162.293C15.7888 162.144 15.6033 162.07 15.3956 162.07ZM14.9579 164.867C14.8318 164.867 14.7724 164.926 14.7724 165.045V172.657C14.7724 172.783 14.8318 172.842 14.9579 172.842H15.8408C15.9595 172.842 16.0188 172.783 16.0188 172.657V165.045C16.0188 164.926 15.9595 164.867 15.8408 164.867H14.9579ZM27.1248 164.726C26.6054 164.726 26.1306 164.852 25.7003 165.104C25.2701 165.357 24.9362 165.698 24.7062 166.128C24.632 166.277 24.5801 166.395 24.543 166.492C24.2537 165.891 23.8531 165.446 23.3337 165.156C22.8144 164.874 22.2135 164.726 21.5458 164.726C21.1155 164.726 20.7075 164.837 20.3217 165.053C19.9359 165.275 19.6169 165.557 19.3573 165.913C19.3276 165.616 19.2089 165.372 19.0012 165.171C18.786 164.971 18.5338 164.867 18.237 164.867C18.1703 164.867 18.1406 164.897 18.1406 164.956V172.657C18.1406 172.716 18.1554 172.761 18.1925 172.79C18.2296 172.827 18.2741 172.842 18.3261 172.842H19.1941C19.2386 172.842 19.2831 172.827 19.3202 172.79C19.3498 172.761 19.3721 172.716 19.3721 172.657V168.421C19.424 167.619 19.6689 167.004 20.1066 166.566C20.4923 166.18 20.9671 165.987 21.5458 165.987C22.3248 165.987 22.896 166.262 23.267 166.796C23.5637 167.241 23.7195 167.842 23.7195 168.606V172.657C23.7195 172.783 23.7715 172.842 23.8902 172.842H24.7656C24.8843 172.842 24.951 172.783 24.951 172.657V168.421C25.003 167.619 25.2478 166.996 25.6781 166.566C26.0639 166.18 26.5461 165.987 27.1248 165.987C27.8963 165.987 28.4676 166.262 28.8385 166.796C29.1427 167.249 29.2985 167.849 29.2985 168.606V172.657C29.2985 172.783 29.3504 172.842 29.4617 172.842H30.3445C30.4632 172.842 30.5226 172.783 30.5226 172.657V168.606C30.5226 167.293 30.1887 166.291 29.521 165.609C28.9127 165.023 28.1189 164.726 27.1248 164.726ZM36.0422 164.726C35.3151 164.726 34.6474 164.919 34.0465 165.29C33.4382 165.668 32.9708 166.173 32.6295 166.803C32.2883 167.441 32.125 168.124 32.125 168.858C32.125 170.075 32.5182 171.062 33.3195 171.833C34.1133 172.605 35.1222 172.991 36.3463 172.991C37.5111 172.991 38.4755 172.627 39.2397 171.9C39.4474 171.7 39.5364 171.455 39.5068 171.166C39.4697 170.884 39.3213 170.669 39.0542 170.52C38.9949 170.52 38.9503 170.55 38.9058 170.609C38.2827 171.41 37.4295 171.811 36.3463 171.811C35.5674 171.811 34.9145 171.596 34.3878 171.158C33.8536 170.728 33.5272 170.134 33.4011 169.378H39.7813C39.8332 169.378 39.8851 169.363 39.9296 169.318C39.9741 169.274 39.9964 169.222 39.9964 169.163C40.0261 168.376 39.8703 167.642 39.5438 166.959C39.21 166.284 38.7352 165.742 38.1194 165.334C37.4963 164.934 36.8063 164.726 36.0422 164.726ZM36.0422 165.898C36.7099 165.898 37.2811 166.128 37.7708 166.588C38.2604 167.048 38.5646 167.627 38.6907 168.317H33.4159C33.5346 167.627 33.8388 167.048 34.321 166.588C34.7958 166.128 35.3745 165.898 36.0422 165.898ZM49.3144 162.374C48.6764 162.374 48.1571 162.597 47.7639 163.042C47.4152 163.435 47.2446 163.903 47.2446 164.437C47.2446 164.889 47.3484 165.334 47.5636 165.765C47.6971 166.039 47.9865 166.47 48.4464 167.056C48.9954 167.753 49.6928 168.584 50.5311 169.548C50.5756 169.608 50.7166 169.771 50.9614 170.053C51.2062 170.335 51.3843 170.55 51.503 170.683C50.7908 171.344 50.034 171.67 49.2254 171.67C48.758 171.67 48.3203 171.544 47.9123 171.277C47.4375 170.995 47.1778 170.58 47.1259 170.045C47.0294 169.289 47.3559 168.554 48.0977 167.842C48.1719 167.768 48.1793 167.686 48.1126 167.597L47.5487 166.915C47.5191 166.878 47.4746 166.855 47.4226 166.855C47.3707 166.855 47.3262 166.87 47.2891 166.9C46.792 167.345 46.4211 167.842 46.1688 168.406C45.9166 168.97 45.8202 169.556 45.8795 170.172C45.9389 170.928 46.2875 171.574 46.9256 172.1C47.5636 172.649 48.3277 172.916 49.2254 172.916C50.3011 172.916 51.2952 172.523 52.2003 171.729L52.3042 171.626C52.9719 172.39 53.3132 172.783 53.328 172.798C53.3577 172.842 53.3948 172.865 53.4467 172.865C53.4912 172.865 53.5357 172.85 53.5802 172.813L54.2331 172.234C54.2702 172.204 54.2924 172.167 54.2999 172.115C54.3073 172.063 54.2999 172.019 54.2702 171.974C54.1292 171.841 53.9734 171.67 53.8102 171.477C53.7212 171.388 53.5951 171.247 53.4244 171.054C53.2464 170.861 53.1425 170.743 53.1129 170.698L53.7212 169.956C54.0328 169.571 54.2183 169.326 54.285 169.229C54.3147 169.2 54.3221 169.155 54.3147 169.096C54.3073 169.044 54.2776 168.999 54.2331 168.97L53.5209 168.45C53.4764 168.421 53.4319 168.413 53.3799 168.421C53.328 168.436 53.2909 168.458 53.2612 168.495C53.1722 168.636 53.0238 168.851 52.8087 169.133L52.549 169.482C52.5194 169.519 52.4526 169.608 52.3339 169.756C52.0816 169.474 51.451 168.732 50.4495 167.523C49.9079 166.863 49.5667 166.455 49.4331 166.291C49.0028 165.72 48.758 165.364 48.6912 165.231C48.5577 164.978 48.4909 164.711 48.4909 164.437C48.4909 164.274 48.5354 164.118 48.6319 163.955C48.7803 163.725 49.0028 163.606 49.3144 163.606C49.6705 163.606 49.8931 163.762 49.997 164.058C50.0415 164.192 50.0489 164.348 50.0044 164.518C49.9599 164.696 49.8783 164.852 49.7521 165.001C49.7076 165.038 49.715 165.082 49.767 165.127C50.0192 165.357 50.3085 165.409 50.635 165.29C50.9391 165.171 51.1246 164.949 51.184 164.607C51.2878 164.051 51.1765 163.547 50.8353 163.087C50.6721 162.871 50.4569 162.701 50.1898 162.567C49.9228 162.441 49.6334 162.374 49.3144 162.374ZM65.0794 162.463C64.9162 162.463 64.7975 162.545 64.7233 162.693L60.183 172.583C60.1681 172.597 60.1681 172.612 60.1681 172.642C60.1681 172.776 60.2275 172.842 60.3536 172.842H61.3106C61.3848 172.842 61.4516 172.805 61.5035 172.724L62.735 170.016H67.5202L68.7962 172.724C68.8259 172.805 68.8927 172.842 68.9965 172.842H69.9387C70.0574 172.842 70.1242 172.783 70.1242 172.657C70.1242 172.627 70.1168 172.597 70.1019 172.583L65.4281 162.693C65.3539 162.545 65.2352 162.463 65.0794 162.463ZM63.284 168.829L65.0942 164.897L66.9638 168.829H63.284ZM72.1866 162.983C72.1347 162.983 72.0902 163.005 72.0605 163.035C72.0234 163.064 72.0086 163.109 72.0086 163.161V164.867H70.9996C70.8809 164.867 70.8216 164.926 70.8216 165.045V165.824C70.8216 165.943 70.8809 166.002 70.9996 166.002H72.0086V169.667C72.0086 170.32 72.0531 170.802 72.1421 171.129C72.2905 171.774 72.6243 172.264 73.1436 172.597C73.5888 172.879 74.1007 173.013 74.6942 172.991C75.0651 172.983 75.4509 172.916 75.8367 172.798C75.9554 172.753 75.985 172.672 75.9405 172.553L75.6215 171.729C75.577 171.633 75.4954 171.596 75.3915 171.626C75.169 171.7 74.9242 171.729 74.6497 171.729C74.2936 171.752 74.0191 171.692 73.8262 171.551C73.5814 171.396 73.4256 171.173 73.3588 170.891C73.2846 170.609 73.2549 170.201 73.2549 169.667V166.002H75.258C75.3767 166.002 75.4361 165.943 75.4361 165.824V165.045C75.4361 164.926 75.3767 164.867 75.258 164.867H73.2549V163.161C73.2549 163.116 73.2327 163.072 73.203 163.035C73.1659 163.005 73.1214 162.983 73.0695 162.983H72.1866ZM78.3294 162.983C78.2775 162.983 78.2329 163.005 78.2033 163.035C78.1662 163.064 78.1513 163.109 78.1513 163.161V164.867H77.1424C77.0237 164.867 76.9643 164.926 76.9643 165.045V165.824C76.9643 165.943 77.0237 166.002 77.1424 166.002H78.1513V169.667C78.1513 170.32 78.1958 170.802 78.2849 171.129C78.4332 171.774 78.7671 172.264 79.2864 172.597C79.7315 172.879 80.2434 173.013 80.8369 172.991C81.2079 172.983 81.5937 172.916 81.9794 172.798C82.0981 172.753 82.1278 172.672 82.0833 172.553L81.7643 171.729C81.7198 171.633 81.6382 171.596 81.5343 171.626C81.3117 171.7 81.0669 171.729 80.7924 171.729C80.4363 171.752 80.1618 171.692 79.9689 171.551C79.7241 171.396 79.5683 171.173 79.5016 170.891C79.4274 170.609 79.3977 170.201 79.3977 169.667V166.002H81.4008C81.5195 166.002 81.5788 165.943 81.5788 165.824V165.045C81.5788 164.926 81.5195 164.867 81.4008 164.867H79.3977V163.161C79.3977 163.116 79.3754 163.072 79.3458 163.035C79.3087 163.005 79.2642 162.983 79.2122 162.983H78.3294ZM86.8759 164.726C86.1488 164.726 85.4811 164.919 84.8802 165.29C84.2719 165.668 83.8045 166.173 83.4632 166.803C83.1219 167.441 82.9587 168.124 82.9587 168.858C82.9587 170.075 83.3519 171.062 84.1532 171.833C84.947 172.605 85.9559 172.991 87.18 172.991C88.3448 172.991 89.3092 172.627 90.0734 171.9C90.2811 171.7 90.3701 171.455 90.3404 171.166C90.3033 170.884 90.155 170.669 89.8879 170.52C89.8285 170.52 89.784 170.55 89.7395 170.609C89.1163 171.41 88.2632 171.811 87.18 171.811C86.4011 171.811 85.7482 171.596 85.2215 171.158C84.6873 170.728 84.3609 170.134 84.2348 169.378H90.6149C90.6669 169.378 90.7188 169.363 90.7633 169.318C90.8078 169.274 90.8301 169.222 90.8301 169.163C90.8598 168.376 90.704 167.642 90.3775 166.959C90.0437 166.284 89.5689 165.742 88.9531 165.334C88.3299 164.934 87.64 164.726 86.8759 164.726ZM86.8759 165.898C87.5435 165.898 88.1148 166.128 88.6044 166.588C89.0941 167.048 89.3983 167.627 89.5244 168.317H84.2496C84.3683 167.627 84.6725 167.048 85.1547 166.588C85.6295 166.128 86.2082 165.898 86.8759 165.898ZM96.2755 164.726C95.7859 164.726 95.3185 164.852 94.8808 165.097C94.443 165.342 94.0795 165.653 93.7976 166.032V165.987C93.7976 165.676 93.6863 165.416 93.4712 165.193C93.2486 164.978 92.989 164.867 92.6774 164.867C92.6106 164.867 92.5809 164.897 92.5809 164.956V172.657C92.5809 172.783 92.6403 172.842 92.7664 172.842H93.6196C93.7383 172.842 93.7976 172.783 93.7976 172.657V168.695C93.7976 167.79 94.0202 167.085 94.4801 166.596C94.8882 166.173 95.4001 165.958 96.0158 165.958C96.6687 165.958 97.2028 166.143 97.6109 166.507C98.1154 166.967 98.375 167.671 98.375 168.606V172.657C98.375 172.783 98.4344 172.842 98.5531 172.842H99.4359C99.4878 172.842 99.5324 172.827 99.5694 172.79C99.5991 172.761 99.6214 172.716 99.6214 172.657V168.346C99.6214 167.174 99.2949 166.262 98.6495 165.609C98.0412 165.023 97.2548 164.726 96.2755 164.726ZM108.138 162.055C108.012 162.055 107.953 162.115 107.953 162.233V166.247C107.678 165.832 107.374 165.513 107.048 165.275C106.499 164.912 105.89 164.726 105.223 164.726C104.095 164.726 103.153 165.134 102.396 165.943C102.025 166.329 101.743 166.766 101.543 167.271C101.335 167.775 101.239 168.309 101.239 168.858C101.239 169.422 101.335 169.956 101.535 170.461C101.736 170.965 102.018 171.41 102.381 171.781C102.745 172.167 103.168 172.464 103.657 172.672C104.139 172.887 104.659 172.991 105.223 172.991C105.905 172.991 106.513 172.805 107.062 172.434C107.493 172.152 107.789 171.841 107.953 171.492V171.685C107.953 172.011 108.064 172.286 108.287 172.508C108.509 172.731 108.784 172.842 109.11 172.842C109.169 172.842 109.199 172.813 109.199 172.753V162.233C109.199 162.115 109.14 162.055 109.021 162.055H108.138ZM105.223 165.972C105.972 165.972 106.617 166.254 107.166 166.811C107.411 167.078 107.604 167.382 107.745 167.738C107.879 168.094 107.953 168.473 107.953 168.858C107.953 169.645 107.686 170.327 107.166 170.899C106.625 171.47 105.979 171.752 105.223 171.752C104.852 171.752 104.503 171.678 104.169 171.529C103.828 171.381 103.539 171.166 103.294 170.899C102.752 170.335 102.485 169.652 102.485 168.858C102.485 168.473 102.552 168.094 102.7 167.738C102.841 167.382 103.041 167.078 103.294 166.811C103.82 166.254 104.466 165.972 105.223 165.972ZM114.207 164.726C113.072 164.726 112.152 165.06 111.454 165.713C111.217 165.95 111.135 166.21 111.195 166.492C111.239 166.811 111.41 167.026 111.699 167.145C111.721 167.167 111.744 167.174 111.759 167.167C111.773 167.159 111.788 167.145 111.803 167.115C112.026 166.796 112.315 166.536 112.656 166.336C113.087 166.084 113.598 165.958 114.207 165.958C114.852 165.958 115.372 166.18 115.757 166.61C116.039 166.937 116.21 167.404 116.269 167.998C115.639 167.842 115.045 167.753 114.481 167.723C113.673 167.694 112.953 167.79 112.322 168.013C111.736 168.235 111.313 168.539 111.046 168.933C110.779 169.333 110.653 169.845 110.653 170.476C110.653 171.054 110.831 171.551 111.187 171.967C111.543 172.382 112.033 172.679 112.656 172.857C113.109 172.983 113.606 173.013 114.147 172.946C114.622 172.887 115.052 172.761 115.438 172.568C115.75 172.419 116.032 172.175 116.284 171.841C116.321 172.13 116.447 172.367 116.662 172.56C116.878 172.753 117.13 172.842 117.427 172.842C117.486 172.842 117.516 172.813 117.516 172.753V168.176C117.516 166.944 117.122 166.024 116.351 165.416C115.757 164.956 115.038 164.726 114.207 164.726ZM113.717 168.985C114.444 168.94 115.023 168.955 115.453 169.029C115.95 169.118 116.225 169.17 116.269 169.177V169.712C116.254 170.275 116.039 170.75 115.631 171.143C115.231 171.529 114.711 171.715 114.066 171.715C113.294 171.715 112.723 171.566 112.352 171.262C112.07 171.04 111.929 170.75 111.929 170.394C111.929 169.89 112.167 169.511 112.641 169.259C112.983 169.081 113.346 168.985 113.717 168.985ZM123.339 164.726C122.85 164.726 122.382 164.852 121.945 165.097C121.507 165.342 121.143 165.653 120.861 166.032V165.987C120.861 165.676 120.75 165.416 120.535 165.193C120.312 164.978 120.053 164.867 119.741 164.867C119.674 164.867 119.645 164.897 119.645 164.956V172.657C119.645 172.783 119.704 172.842 119.83 172.842H120.683C120.802 172.842 120.861 172.783 120.861 172.657V168.695C120.861 167.79 121.084 167.085 121.544 166.596C121.952 166.173 122.464 165.958 123.08 165.958C123.733 165.958 124.267 166.143 124.675 166.507C125.179 166.967 125.439 167.671 125.439 168.606V172.657C125.439 172.783 125.498 172.842 125.617 172.842H126.5C126.552 172.842 126.596 172.827 126.633 172.79C126.663 172.761 126.685 172.716 126.685 172.657V168.346C126.685 167.174 126.359 166.262 125.713 165.609C125.105 165.023 124.319 164.726 123.339 164.726ZM132.331 164.726C131.767 164.726 131.24 164.837 130.751 165.045C130.254 165.26 129.816 165.557 129.445 165.928C129.074 166.306 128.785 166.744 128.577 167.249C128.369 167.753 128.273 168.295 128.273 168.858C128.273 169.422 128.369 169.956 128.577 170.461C128.785 170.965 129.074 171.41 129.445 171.781C129.816 172.167 130.246 172.464 130.743 172.672C131.24 172.887 131.767 172.991 132.331 172.991C133.11 172.991 133.822 172.79 134.46 172.375C134.972 172.063 135.38 171.663 135.692 171.188C135.714 171.158 135.721 171.114 135.714 171.054C135.699 171.002 135.669 170.965 135.625 170.943L134.868 170.476C134.749 170.409 134.668 170.431 134.623 170.535C134.356 170.921 134.015 171.225 133.614 171.433C133.214 171.648 132.783 171.752 132.331 171.752C131.545 171.752 130.877 171.47 130.343 170.899C129.794 170.32 129.519 169.637 129.519 168.858C129.519 168.473 129.586 168.102 129.734 167.746C129.883 167.389 130.083 167.078 130.343 166.811C130.884 166.254 131.545 165.972 132.331 165.972C132.791 165.972 133.221 166.084 133.622 166.291C134.022 166.507 134.356 166.803 134.623 167.189C134.69 167.278 134.772 167.293 134.868 167.249L135.625 166.781C135.669 166.766 135.699 166.729 135.714 166.67C135.729 166.618 135.721 166.573 135.692 166.536C135.365 166.047 134.927 165.631 134.378 165.29C133.77 164.919 133.088 164.726 132.331 164.726ZM140.633 164.726C139.906 164.726 139.238 164.919 138.637 165.29C138.029 165.668 137.561 166.173 137.22 166.803C136.879 167.441 136.715 168.124 136.715 168.858C136.715 170.075 137.109 171.062 137.91 171.833C138.704 172.605 139.713 172.991 140.937 172.991C142.101 172.991 143.066 172.627 143.83 171.9C144.038 171.7 144.127 171.455 144.097 171.166C144.06 170.884 143.912 170.669 143.645 170.52C143.585 170.52 143.541 170.55 143.496 170.609C142.873 171.41 142.02 171.811 140.937 171.811C140.158 171.811 139.505 171.596 138.978 171.158C138.444 170.728 138.118 170.134 137.991 169.378H144.372C144.424 169.378 144.475 169.363 144.52 169.318C144.565 169.274 144.587 169.222 144.587 169.163C144.616 168.376 144.461 167.642 144.134 166.959C143.8 166.284 143.326 165.742 142.71 165.334C142.087 164.934 141.397 164.726 140.633 164.726ZM140.633 165.898C141.3 165.898 141.871 166.128 142.361 166.588C142.851 167.048 143.155 167.627 143.281 168.317H138.006C138.125 167.627 138.429 167.048 138.911 166.588C139.386 166.128 139.965 165.898 140.633 165.898Z" fill="#A8A8A8"/>
<path d="M208.712 1.82468H331.852C347.868 1.82468 360.852 14.8086 360.852 30.8252V153.964C360.852 169.981 347.868 182.965 331.852 182.965H208.712C192.696 182.965 179.712 169.981 179.712 153.964V30.8252C179.712 14.8086 192.696 1.82468 208.712 1.82468Z" fill="#EBEFFA" stroke="white" stroke-width="2.29292"/>
<g filter="url(#filter2_di_0_231)">
<path d="M231.97 93.8352C238.518 93.8352 243.827 88.5264 243.827 81.9776C243.827 75.4289 238.518 70.1201 231.97 70.1201C225.421 70.1201 220.112 75.4289 220.112 81.9776C220.112 88.5264 225.421 93.8352 231.97 93.8352Z" fill="#ADBFEB"/>
<path d="M259.517 127.836C259.644 124.136 259.026 120.449 257.698 116.993C256.37 113.537 254.36 110.385 251.788 107.722C249.216 105.06 246.134 102.943 242.727 101.496C239.319 100.05 235.655 99.3052 231.953 99.3052C228.251 99.3052 224.587 100.05 221.179 101.496C217.772 102.943 214.69 105.06 212.118 107.722C209.546 110.385 207.536 113.537 206.208 116.993C204.88 120.449 204.262 124.136 204.389 127.836C212.883 132.327 222.345 134.675 231.953 134.675C241.561 134.675 251.023 132.327 259.517 127.836Z" fill="#ADBFEB"/>
<path d="M307.055 95.1162C313.958 95.1162 319.553 89.5206 319.553 82.6181C319.553 75.7157 313.958 70.1201 307.055 70.1201C300.153 70.1201 294.557 75.7157 294.557 82.6181C294.557 89.5206 300.153 95.1162 307.055 95.1162Z" fill="#ADBFEB"/>
<path d="M336.194 127.466C335.934 119.934 332.759 112.798 327.339 107.561C321.919 102.325 314.677 99.3979 307.141 99.3979C299.604 99.3979 292.363 102.325 286.943 107.561C281.522 112.798 278.348 119.934 278.088 127.466C287.04 132.201 297.014 134.675 307.141 134.675C317.268 134.675 327.241 132.201 336.194 127.466Z" fill="#ADBFEB"/>
<path d="M269.245 82.0437C279.05 82.0437 286.999 74.0951 286.999 64.2901C286.999 54.4851 279.05 46.5366 269.245 46.5366C259.44 46.5366 251.491 54.4851 251.491 64.2901C251.491 74.0951 259.44 82.0437 269.245 82.0437Z" fill="#4069D0"/>
<path d="M310.517 128.032C310.517 117.086 306.169 106.589 298.429 98.8486C290.689 91.1085 280.191 86.7603 269.245 86.7603C258.299 86.7603 247.802 91.1085 240.062 98.8486C232.322 106.589 227.973 117.086 227.973 128.032C240.695 134.745 254.862 138.253 269.245 138.253C283.629 138.253 297.796 134.745 310.517 128.032Z" fill="#4069D0"/>
</g>
<path d="M194.529 200.072C194.477 200.072 194.432 200.094 194.395 200.131C194.358 200.168 194.343 200.213 194.343 200.257V210.221C194.343 210.28 194.358 210.324 194.395 210.354C194.432 210.391 194.477 210.406 194.529 210.406H195.411C195.53 210.406 195.589 210.347 195.589 210.221V207.045H198.779C199.937 207.045 200.842 206.756 201.502 206.17C202.177 205.576 202.519 204.723 202.519 203.618C202.519 202.527 202.185 201.659 201.532 201.014C200.886 200.391 199.996 200.072 198.861 200.072H194.529ZM195.589 205.799V201.318H198.861C200.464 201.318 201.272 202.09 201.272 203.618C201.272 204.241 201.116 204.731 200.805 205.087C200.389 205.562 199.714 205.799 198.779 205.799H195.589ZM207.779 202.29C207.051 202.29 206.384 202.483 205.783 202.854C205.175 203.232 204.707 203.736 204.366 204.367C204.025 205.005 203.861 205.688 203.861 206.422C203.861 207.639 204.255 208.625 205.056 209.397C205.85 210.169 206.859 210.554 208.083 210.554C209.247 210.554 210.212 210.191 210.976 209.464C211.184 209.264 211.273 209.019 211.243 208.729C211.206 208.447 211.058 208.232 210.791 208.084C210.731 208.084 210.687 208.114 210.642 208.173C210.019 208.974 209.166 209.375 208.083 209.375C207.304 209.375 206.651 209.16 206.124 208.722C205.59 208.292 205.264 207.698 205.137 206.941H211.518C211.57 206.941 211.621 206.927 211.666 206.882C211.71 206.838 211.733 206.786 211.733 206.726C211.762 205.94 211.607 205.205 211.28 204.523C210.946 203.848 210.472 203.306 209.856 202.898C209.233 202.498 208.543 202.29 207.779 202.29ZM207.779 203.462C208.446 203.462 209.017 203.692 209.507 204.152C209.997 204.612 210.301 205.191 210.427 205.881H205.152C205.271 205.191 205.575 204.612 206.057 204.152C206.532 203.692 207.111 203.462 207.779 203.462ZM217.134 202.29C215.999 202.29 215.042 202.698 214.263 203.507C213.892 203.892 213.595 204.345 213.387 204.849C213.179 205.354 213.076 205.881 213.076 206.422C213.076 206.971 213.179 207.49 213.387 207.987C213.595 208.492 213.892 208.93 214.263 209.315C214.633 209.709 215.071 210.013 215.561 210.228C216.05 210.451 216.57 210.554 217.134 210.554C217.675 210.554 218.195 210.451 218.692 210.228C219.181 210.005 219.619 209.701 220.005 209.315C220.376 208.93 220.665 208.492 220.873 207.987C221.08 207.49 221.192 206.971 221.192 206.422C221.192 205.881 221.08 205.354 220.873 204.849C220.665 204.345 220.376 203.892 220.005 203.507C219.626 203.121 219.189 202.824 218.699 202.609C218.202 202.401 217.683 202.29 217.134 202.29ZM217.134 203.536C217.913 203.536 218.573 203.818 219.122 204.375C219.374 204.642 219.574 204.953 219.723 205.309C219.871 205.665 219.945 206.036 219.945 206.422C219.945 207.201 219.671 207.884 219.122 208.462C218.58 209.034 217.92 209.315 217.134 209.315C216.347 209.315 215.68 209.034 215.145 208.462C214.596 207.884 214.322 207.201 214.322 206.422C214.322 206.036 214.389 205.665 214.537 205.309C214.685 204.953 214.886 204.642 215.145 204.375C215.687 203.818 216.347 203.536 217.134 203.536ZM226.934 202.29C226.266 202.29 225.658 202.475 225.094 202.839C224.871 202.987 224.686 203.143 224.53 203.314C224.367 203.484 224.256 203.64 224.196 203.781V203.581C224.196 203.254 224.085 202.987 223.862 202.765C223.64 202.542 223.373 202.431 223.046 202.431C222.98 202.431 222.95 202.46 222.95 202.52V212.35C222.95 212.476 223.009 212.535 223.135 212.535H224.018C224.137 212.535 224.196 212.476 224.196 212.35V209.026C224.345 209.353 224.649 209.679 225.109 209.998C225.628 210.369 226.237 210.554 226.934 210.554C227.475 210.554 227.987 210.451 228.477 210.228C228.967 210.013 229.39 209.716 229.76 209.33C230.117 208.959 230.398 208.514 230.606 208.01C230.814 207.505 230.918 206.971 230.918 206.422C230.918 205.858 230.814 205.332 230.614 204.827C230.413 204.323 230.131 203.885 229.775 203.507C229.404 203.128 228.981 202.831 228.499 202.616C228.01 202.401 227.49 202.29 226.934 202.29ZM226.934 203.536C227.683 203.536 228.329 203.818 228.878 204.375C229.122 204.642 229.315 204.953 229.456 205.309C229.597 205.665 229.671 206.036 229.671 206.422C229.671 207.208 229.404 207.884 228.878 208.462C228.336 209.034 227.691 209.315 226.934 209.315C226.563 209.315 226.214 209.241 225.88 209.093C225.539 208.945 225.25 208.729 225.005 208.462C224.463 207.898 224.196 207.216 224.196 206.422C224.196 206.036 224.263 205.658 224.411 205.302C224.552 204.946 224.753 204.642 225.005 204.375C225.532 203.818 226.177 203.536 226.934 203.536ZM232.869 199.619C232.743 199.619 232.683 199.678 232.683 199.797V210.221C232.683 210.347 232.743 210.406 232.869 210.406H233.752C233.87 210.406 233.93 210.347 233.93 210.221V199.797C233.93 199.678 233.87 199.619 233.752 199.619H232.869ZM239.576 202.29C238.848 202.29 238.181 202.483 237.58 202.854C236.972 203.232 236.504 203.736 236.163 204.367C235.822 205.005 235.658 205.688 235.658 206.422C235.658 207.639 236.052 208.625 236.853 209.397C237.647 210.169 238.656 210.554 239.88 210.554C241.044 210.554 242.009 210.191 242.773 209.464C242.981 209.264 243.07 209.019 243.04 208.729C243.003 208.447 242.855 208.232 242.588 208.084C242.528 208.084 242.484 208.114 242.439 208.173C241.816 208.974 240.963 209.375 239.88 209.375C239.101 209.375 238.448 209.16 237.921 208.722C237.387 208.292 237.061 207.698 236.934 206.941H243.315C243.367 206.941 243.418 206.927 243.463 206.882C243.507 206.838 243.53 206.786 243.53 206.726C243.559 205.94 243.404 205.205 243.077 204.523C242.743 203.848 242.269 203.306 241.653 202.898C241.03 202.498 240.34 202.29 239.576 202.29ZM239.576 203.462C240.243 203.462 240.814 203.692 241.304 204.152C241.794 204.612 242.098 205.191 242.224 205.881H236.949C237.068 205.191 237.372 204.612 237.854 204.152C238.329 203.692 238.908 203.462 239.576 203.462ZM258.82 202.29C258.301 202.29 257.826 202.416 257.396 202.668C256.965 202.92 256.631 203.262 256.401 203.692C256.327 203.84 256.275 203.959 256.238 204.056C255.949 203.455 255.548 203.009 255.029 202.72C254.51 202.438 253.909 202.29 253.241 202.29C252.811 202.29 252.403 202.401 252.017 202.616C251.631 202.839 251.312 203.121 251.052 203.477C251.023 203.18 250.904 202.935 250.696 202.735C250.481 202.535 250.229 202.431 249.932 202.431C249.865 202.431 249.836 202.46 249.836 202.52V210.221C249.836 210.28 249.851 210.324 249.888 210.354C249.925 210.391 249.969 210.406 250.021 210.406H250.889C250.934 210.406 250.978 210.391 251.015 210.354C251.045 210.324 251.067 210.28 251.067 210.221V205.984C251.119 205.183 251.364 204.567 251.802 204.13C252.188 203.744 252.662 203.551 253.241 203.551C254.02 203.551 254.591 203.826 254.962 204.36C255.259 204.805 255.415 205.406 255.415 206.17V210.221C255.415 210.347 255.467 210.406 255.585 210.406H256.461C256.579 210.406 256.646 210.347 256.646 210.221V205.984C256.698 205.183 256.943 204.56 257.373 204.13C257.759 203.744 258.241 203.551 258.82 203.551C259.591 203.551 260.163 203.826 260.534 204.36C260.838 204.812 260.994 205.413 260.994 206.17V210.221C260.994 210.347 261.046 210.406 261.157 210.406H262.04C262.158 210.406 262.218 210.347 262.218 210.221V206.17C262.218 204.857 261.884 203.855 261.216 203.173C260.608 202.587 259.814 202.29 258.82 202.29ZM267.559 202.29C266.424 202.29 265.504 202.624 264.807 203.277C264.569 203.514 264.488 203.774 264.547 204.056C264.592 204.375 264.762 204.59 265.052 204.708C265.074 204.731 265.096 204.738 265.111 204.731C265.126 204.723 265.141 204.708 265.156 204.679C265.378 204.36 265.667 204.1 266.009 203.9C266.439 203.647 266.951 203.521 267.559 203.521C268.205 203.521 268.724 203.744 269.11 204.174C269.392 204.501 269.562 204.968 269.622 205.562C268.991 205.406 268.398 205.317 267.834 205.287C267.025 205.257 266.305 205.354 265.675 205.576C265.089 205.799 264.666 206.103 264.399 206.496C264.132 206.897 264.006 207.409 264.006 208.039C264.006 208.618 264.184 209.115 264.54 209.531C264.896 209.946 265.386 210.243 266.009 210.421C266.461 210.547 266.958 210.577 267.5 210.51C267.975 210.451 268.405 210.324 268.791 210.132C269.102 209.983 269.384 209.738 269.637 209.404C269.674 209.694 269.8 209.931 270.015 210.124C270.23 210.317 270.482 210.406 270.779 210.406C270.838 210.406 270.868 210.376 270.868 210.317V205.74C270.868 204.508 270.475 203.588 269.703 202.98C269.11 202.52 268.39 202.29 267.559 202.29ZM267.07 206.548C267.797 206.504 268.375 206.519 268.806 206.593C269.303 206.682 269.577 206.734 269.622 206.741V207.275C269.607 207.839 269.392 208.314 268.984 208.707C268.583 209.093 268.064 209.278 267.418 209.278C266.647 209.278 266.076 209.13 265.705 208.826C265.423 208.603 265.282 208.314 265.282 207.958C265.282 207.453 265.519 207.075 265.994 206.823C266.335 206.645 266.699 206.548 267.07 206.548ZM276.692 202.29C276.202 202.29 275.735 202.416 275.297 202.661C274.859 202.906 274.496 203.217 274.214 203.596V203.551C274.214 203.239 274.103 202.98 273.888 202.757C273.665 202.542 273.405 202.431 273.094 202.431C273.027 202.431 272.997 202.46 272.997 202.52V210.221C272.997 210.347 273.057 210.406 273.183 210.406H274.036C274.155 210.406 274.214 210.347 274.214 210.221V206.259C274.214 205.354 274.437 204.649 274.896 204.159C275.305 203.736 275.816 203.521 276.432 203.521C277.085 203.521 277.619 203.707 278.027 204.07C278.532 204.53 278.791 205.235 278.791 206.17V210.221C278.791 210.347 278.851 210.406 278.969 210.406H279.852C279.904 210.406 279.949 210.391 279.986 210.354C280.015 210.324 280.038 210.28 280.038 210.221V205.91C280.038 204.738 279.711 203.826 279.066 203.173C278.458 202.587 277.671 202.29 276.692 202.29ZM285.364 202.29C284.229 202.29 283.309 202.624 282.612 203.277C282.375 203.514 282.293 203.774 282.352 204.056C282.397 204.375 282.568 204.59 282.857 204.708C282.879 204.731 282.901 204.738 282.916 204.731C282.931 204.723 282.946 204.708 282.961 204.679C283.183 204.36 283.473 204.1 283.814 203.9C284.244 203.647 284.756 203.521 285.364 203.521C286.01 203.521 286.529 203.744 286.915 204.174C287.197 204.501 287.368 204.968 287.427 205.562C286.796 205.406 286.203 205.317 285.639 205.287C284.83 205.257 284.111 205.354 283.48 205.576C282.894 205.799 282.471 206.103 282.204 206.496C281.937 206.897 281.811 207.409 281.811 208.039C281.811 208.618 281.989 209.115 282.345 209.531C282.701 209.946 283.191 210.243 283.814 210.421C284.266 210.547 284.763 210.577 285.305 210.51C285.78 210.451 286.21 210.324 286.596 210.132C286.908 209.983 287.189 209.738 287.442 209.404C287.479 209.694 287.605 209.931 287.82 210.124C288.035 210.317 288.287 210.406 288.584 210.406C288.644 210.406 288.673 210.376 288.673 210.317V205.74C288.673 204.508 288.28 203.588 287.508 202.98C286.915 202.52 286.195 202.29 285.364 202.29ZM284.875 206.548C285.602 206.504 286.18 206.519 286.611 206.593C287.108 206.682 287.382 206.734 287.427 206.741V207.275C287.412 207.839 287.197 208.314 286.789 208.707C286.388 209.093 285.869 209.278 285.223 209.278C284.452 209.278 283.881 209.13 283.51 208.826C283.228 208.603 283.087 208.314 283.087 207.958C283.087 207.453 283.324 207.075 283.799 206.823C284.14 206.645 284.504 206.548 284.875 206.548ZM294.452 202.29C293.384 202.29 292.494 202.653 291.774 203.373C291.426 203.714 291.159 204.107 290.966 204.567C290.773 205.027 290.684 205.517 290.684 206.029C290.684 206.548 290.773 207.038 290.966 207.498C291.159 207.958 291.426 208.358 291.774 208.692C292.486 209.412 293.384 209.768 294.452 209.768C295.001 209.768 295.513 209.634 295.988 209.36C296.374 209.13 296.7 208.848 296.975 208.507V209.174C296.975 209.753 296.797 210.235 296.441 210.636C295.996 211.14 295.328 211.393 294.438 211.393C293.829 211.393 293.214 211.267 292.598 211.014C292.242 210.888 291.886 210.71 291.537 210.48C291.492 210.451 291.448 210.458 291.411 210.495C291.218 210.747 291.159 211.044 291.248 211.378C291.277 211.526 291.337 211.66 291.44 211.778C291.537 211.897 291.663 211.986 291.811 212.046C292.657 212.446 293.533 212.639 294.438 212.639C295.602 212.639 296.537 212.305 297.235 211.638C297.887 211.029 298.221 210.206 298.221 209.174V202.52C298.221 202.46 298.184 202.431 298.125 202.431C297.821 202.431 297.561 202.542 297.338 202.75C297.116 202.965 296.997 203.225 296.975 203.536C296.693 203.18 296.337 202.883 295.914 202.646C295.491 202.409 295.001 202.29 294.452 202.29ZM294.452 203.536C295.12 203.536 295.706 203.774 296.211 204.241C296.7 204.701 296.96 205.265 296.975 205.925V206.14C296.96 206.808 296.7 207.364 296.211 207.824C295.706 208.292 295.12 208.522 294.452 208.522C293.755 208.522 293.162 208.277 292.672 207.78C292.175 207.29 291.93 206.704 291.93 206.029C291.93 205.346 292.175 204.76 292.665 204.271C293.154 203.781 293.755 203.536 294.452 203.536ZM303.867 202.29C303.14 202.29 302.472 202.483 301.871 202.854C301.263 203.232 300.796 203.736 300.454 204.367C300.113 205.005 299.95 205.688 299.95 206.422C299.95 207.639 300.343 208.625 301.144 209.397C301.938 210.169 302.947 210.554 304.171 210.554C305.336 210.554 306.3 210.191 307.064 209.464C307.272 209.264 307.361 209.019 307.332 208.729C307.294 208.447 307.146 208.232 306.879 208.084C306.82 208.084 306.775 208.114 306.731 208.173C306.107 208.974 305.254 209.375 304.171 209.375C303.392 209.375 302.739 209.16 302.213 208.722C301.678 208.292 301.352 207.698 301.226 206.941H307.606C307.658 206.941 307.71 206.927 307.754 206.882C307.799 206.838 307.821 206.786 307.821 206.726C307.851 205.94 307.695 205.205 307.369 204.523C307.035 203.848 306.56 203.306 305.944 202.898C305.321 202.498 304.631 202.29 303.867 202.29ZM303.867 203.462C304.535 203.462 305.106 203.692 305.596 204.152C306.085 204.612 306.389 205.191 306.515 205.881H301.241C301.359 205.191 301.664 204.612 302.146 204.152C302.621 203.692 303.199 203.462 303.867 203.462ZM318.556 202.29C318.037 202.29 317.562 202.416 317.132 202.668C316.701 202.92 316.368 203.262 316.138 203.692C316.063 203.84 316.012 203.959 315.974 204.056C315.685 203.455 315.284 203.009 314.765 202.72C314.246 202.438 313.645 202.29 312.977 202.29C312.547 202.29 312.139 202.401 311.753 202.616C311.367 202.839 311.048 203.121 310.789 203.477C310.759 203.18 310.64 202.935 310.433 202.735C310.217 202.535 309.965 202.431 309.668 202.431C309.602 202.431 309.572 202.46 309.572 202.52V210.221C309.572 210.28 309.587 210.324 309.624 210.354C309.661 210.391 309.706 210.406 309.757 210.406H310.625C310.67 210.406 310.715 210.391 310.752 210.354C310.781 210.324 310.804 210.28 310.804 210.221V205.984C310.855 205.183 311.1 204.567 311.538 204.13C311.924 203.744 312.399 203.551 312.977 203.551C313.756 203.551 314.327 203.826 314.698 204.36C314.995 204.805 315.151 205.406 315.151 206.17V210.221C315.151 210.347 315.203 210.406 315.322 210.406H316.197C316.316 210.406 316.382 210.347 316.382 210.221V205.984C316.434 205.183 316.679 204.56 317.11 204.13C317.495 203.744 317.978 203.551 318.556 203.551C319.328 203.551 319.899 203.826 320.27 204.36C320.574 204.812 320.73 205.413 320.73 206.17V210.221C320.73 210.347 320.782 210.406 320.893 210.406H321.776C321.895 210.406 321.954 210.347 321.954 210.221V206.17C321.954 204.857 321.62 203.855 320.952 203.173C320.344 202.587 319.55 202.29 318.556 202.29ZM327.474 202.29C326.747 202.29 326.079 202.483 325.478 202.854C324.87 203.232 324.402 203.736 324.061 204.367C323.72 205.005 323.556 205.688 323.556 206.422C323.556 207.639 323.95 208.625 324.751 209.397C325.545 210.169 326.554 210.554 327.778 210.554C328.943 210.554 329.907 210.191 330.671 209.464C330.879 209.264 330.968 209.019 330.938 208.729C330.901 208.447 330.753 208.232 330.486 208.084C330.426 208.084 330.382 208.114 330.337 208.173C329.714 208.974 328.861 209.375 327.778 209.375C326.999 209.375 326.346 209.16 325.819 208.722C325.285 208.292 324.959 207.698 324.832 206.941H331.213C331.265 206.941 331.317 206.927 331.361 206.882C331.406 206.838 331.428 206.786 331.428 206.726C331.457 205.94 331.302 205.205 330.975 204.523C330.641 203.848 330.167 203.306 329.551 202.898C328.928 202.498 328.238 202.29 327.474 202.29ZM327.474 203.462C328.141 203.462 328.713 203.692 329.202 204.152C329.692 204.612 329.996 205.191 330.122 205.881H324.847C324.966 205.191 325.27 204.612 325.752 204.152C326.227 203.692 326.806 203.462 327.474 203.462ZM336.873 202.29C336.384 202.29 335.916 202.416 335.478 202.661C335.041 202.906 334.677 203.217 334.395 203.596V203.551C334.395 203.239 334.284 202.98 334.069 202.757C333.846 202.542 333.587 202.431 333.275 202.431C333.208 202.431 333.179 202.46 333.179 202.52V210.221C333.179 210.347 333.238 210.406 333.364 210.406H334.217C334.336 210.406 334.395 210.347 334.395 210.221V206.259C334.395 205.354 334.618 204.649 335.078 204.159C335.486 203.736 335.998 203.521 336.614 203.521C337.266 203.521 337.801 203.707 338.209 204.07C338.713 204.53 338.973 205.235 338.973 206.17V210.221C338.973 210.347 339.032 210.406 339.151 210.406H340.034C340.086 210.406 340.13 210.391 340.167 210.354C340.197 210.324 340.219 210.28 340.219 210.221V205.91C340.219 204.738 339.893 203.826 339.247 203.173C338.639 202.587 337.853 202.29 336.873 202.29ZM343.083 200.546C343.031 200.546 342.986 200.569 342.957 200.598C342.92 200.628 342.905 200.673 342.905 200.724V202.431H341.896C341.777 202.431 341.718 202.49 341.718 202.609V203.388C341.718 203.507 341.777 203.566 341.896 203.566H342.905V207.231C342.905 207.884 342.949 208.366 343.038 208.692C343.187 209.338 343.52 209.827 344.04 210.161C344.485 210.443 344.997 210.577 345.59 210.554C345.961 210.547 346.347 210.48 346.733 210.361C346.852 210.317 346.881 210.235 346.837 210.117L346.518 209.293C346.473 209.197 346.392 209.16 346.288 209.189C346.065 209.264 345.82 209.293 345.546 209.293C345.19 209.315 344.915 209.256 344.722 209.115C344.478 208.959 344.322 208.737 344.255 208.455C344.181 208.173 344.151 207.765 344.151 207.231V203.566H346.154C346.273 203.566 346.332 203.507 346.332 203.388V202.609C346.332 202.49 346.273 202.431 346.154 202.431H344.151V200.724C344.151 200.68 344.129 200.635 344.099 200.598C344.062 200.569 344.018 200.546 343.966 200.546H343.083Z" fill="#A8A8A8"/>
<g filter="url(#filter3_b_0_231)">
<path d="M515.557 0.678223H415.085C401.5 0.678223 390.487 11.691 390.487 25.2759V125.749C390.487 139.333 401.5 150.346 415.085 150.346H515.557C529.142 150.346 540.155 139.333 540.155 125.749V25.2759C540.155 11.691 529.142 0.678223 515.557 0.678223Z" fill="#FFE5E5"/>
</g>
<g filter="url(#filter4_di_0_231)">
<path d="M510.252 30.6118C508.25 30.9197 506.374 31.7788 504.833 33.093C503.292 34.4072 502.148 36.1245 501.528 38.0524C501.17 39.083 500.996 40.1687 501.015 41.2596V107.007C501.015 110.551 499.612 113.951 497.111 116.463C494.611 118.976 491.218 120.396 487.673 120.412H486.807H486.423C486.05 120.34 485.685 120.232 485.332 120.092C485.034 119.961 484.745 119.811 484.466 119.643C483.976 119.333 483.524 118.967 483.119 118.552C481.931 117.226 481.016 115.678 480.425 113.998C480.001 112.963 479.678 111.889 479.463 110.791C479.309 109.901 479.234 109 479.239 108.097C479.239 107.744 479.239 107.391 479.239 107.071V99.0207H442.484L442.324 42.0935C442.324 41.6765 442.324 41.2596 442.324 40.8106C442.589 38.3436 443.621 36.0218 445.275 34.1718C446.097 33.2551 447.061 32.4756 448.129 31.8626C448.831 31.4352 449.601 31.1315 450.406 30.9646H451.721H510.252V30.6118Z" fill="#FF6666"/>
<path d="M420.388 98.9246H479.239V108.001C479.233 110.416 479.758 112.803 480.778 114.992C481.253 116.5 482.177 117.828 483.426 118.796C484.676 119.765 486.191 120.329 487.77 120.413H430.298C427.941 120.404 425.665 119.551 423.883 118.007C422.729 116.983 421.838 115.696 421.286 114.255C420.746 112.898 420.473 111.45 420.484 109.989L420.388 98.9246Z" fill="#FF9999"/>
</g>
<path d="M442.278 162.508C442.226 162.508 442.182 162.53 442.145 162.567C442.107 162.604 442.093 162.649 442.093 162.693V172.657C442.093 172.716 442.107 172.761 442.145 172.79C442.182 172.827 442.226 172.842 442.278 172.842H443.161C443.28 172.842 443.339 172.783 443.339 172.657V169.482H446.529C447.686 169.482 448.592 169.192 449.252 168.606C449.927 168.013 450.268 167.159 450.268 166.054C450.268 164.964 449.934 164.096 449.281 163.45C448.636 162.827 447.746 162.508 446.611 162.508H442.278ZM443.339 168.235V163.754H446.611C448.213 163.754 449.022 164.526 449.022 166.054C449.022 166.677 448.866 167.167 448.554 167.523C448.139 167.998 447.464 168.235 446.529 168.235H443.339ZM455.276 164.726C454.141 164.726 453.221 165.06 452.523 165.713C452.286 165.95 452.204 166.21 452.264 166.492C452.308 166.811 452.479 167.026 452.768 167.145C452.791 167.167 452.813 167.174 452.828 167.167C452.842 167.159 452.857 167.145 452.872 167.115C453.095 166.796 453.384 166.536 453.725 166.336C454.156 166.084 454.668 165.958 455.276 165.958C455.921 165.958 456.441 166.18 456.826 166.61C457.108 166.937 457.279 167.404 457.338 167.998C456.708 167.842 456.114 167.753 455.55 167.723C454.742 167.694 454.022 167.79 453.391 168.013C452.805 168.235 452.383 168.539 452.115 168.933C451.848 169.333 451.722 169.845 451.722 170.476C451.722 171.054 451.9 171.551 452.256 171.967C452.613 172.382 453.102 172.679 453.725 172.857C454.178 172.983 454.675 173.013 455.217 172.946C455.691 172.887 456.122 172.761 456.507 172.568C456.819 172.419 457.101 172.175 457.353 171.841C457.39 172.13 457.516 172.367 457.731 172.56C457.947 172.753 458.199 172.842 458.496 172.842C458.555 172.842 458.585 172.813 458.585 172.753V168.176C458.585 166.944 458.191 166.024 457.42 165.416C456.826 164.956 456.107 164.726 455.276 164.726ZM454.786 168.985C455.513 168.94 456.092 168.955 456.522 169.029C457.019 169.118 457.294 169.17 457.338 169.177V169.712C457.323 170.275 457.108 170.75 456.7 171.143C456.3 171.529 455.78 171.715 455.135 171.715C454.363 171.715 453.792 171.566 453.421 171.262C453.139 171.04 452.998 170.75 452.998 170.394C452.998 169.89 453.236 169.511 453.71 169.259C454.052 169.081 454.415 168.985 454.786 168.985ZM466.092 164.867C465.944 164.867 465.862 164.926 465.833 165.045L463.511 170.928L461.077 165.03C461.048 164.926 460.966 164.867 460.84 164.867H459.883C459.809 164.867 459.757 164.897 459.72 164.956C459.683 165.015 459.683 165.067 459.712 165.127L462.902 172.464L462.598 173.25C462.494 173.495 462.339 173.651 462.146 173.71C461.997 173.77 461.834 173.799 461.671 173.799C461.582 173.799 461.522 173.844 461.493 173.918L461.159 174.756C461.129 174.816 461.129 174.868 461.159 174.92C461.189 174.971 461.233 175.001 461.293 175.001C461.411 175.031 461.552 175.046 461.73 175.046C461.864 175.046 462.042 175.023 462.25 174.971C462.939 174.801 463.414 174.393 463.667 173.755L467.205 165.127C467.235 165.067 467.228 165.015 467.19 164.956C467.153 164.897 467.101 164.867 467.035 164.867H466.092ZM472.295 164.778C471.849 164.778 471.434 164.897 471.041 165.119C470.648 165.349 470.314 165.646 470.032 166.017V166.002C470.032 165.676 469.921 165.409 469.705 165.193C469.49 164.978 469.223 164.867 468.912 164.867C468.845 164.867 468.815 164.897 468.815 164.956V172.657C468.815 172.783 468.875 172.842 469.001 172.842H469.854C469.973 172.842 470.032 172.783 470.032 172.657V168.45C470.084 167.649 470.343 167.026 470.811 166.596C471.197 166.225 471.694 166.032 472.295 166.032C472.458 166.032 472.717 166.084 473.059 166.188C473.103 166.21 473.155 166.202 473.2 166.165C473.244 166.136 473.266 166.091 473.281 166.032V165.06C473.296 164.978 473.252 164.912 473.148 164.867C472.91 164.808 472.628 164.778 472.295 164.778ZM478.118 164.726C476.983 164.726 476.026 165.134 475.247 165.943C474.876 166.329 474.58 166.781 474.372 167.286C474.164 167.79 474.06 168.317 474.06 168.858C474.06 169.407 474.164 169.927 474.372 170.424C474.58 170.928 474.876 171.366 475.247 171.752C475.618 172.145 476.056 172.449 476.546 172.664C477.035 172.887 477.555 172.991 478.118 172.991C478.66 172.991 479.179 172.887 479.676 172.664C480.166 172.442 480.604 172.137 480.989 171.752C481.36 171.366 481.65 170.928 481.857 170.424C482.065 169.927 482.176 169.407 482.176 168.858C482.176 168.317 482.065 167.79 481.857 167.286C481.65 166.781 481.36 166.329 480.989 165.943C480.611 165.557 480.173 165.26 479.684 165.045C479.187 164.837 478.667 164.726 478.118 164.726ZM478.118 165.972C478.897 165.972 479.558 166.254 480.107 166.811C480.359 167.078 480.559 167.389 480.708 167.746C480.856 168.102 480.93 168.473 480.93 168.858C480.93 169.637 480.656 170.32 480.107 170.899C479.565 171.47 478.905 171.752 478.118 171.752C477.332 171.752 476.664 171.47 476.13 170.899C475.581 170.32 475.307 169.637 475.307 168.858C475.307 168.473 475.373 168.102 475.522 167.746C475.67 167.389 475.87 167.078 476.13 166.811C476.672 166.254 477.332 165.972 478.118 165.972ZM484.12 162.055C483.994 162.055 483.935 162.115 483.935 162.233V172.657C483.935 172.783 483.994 172.842 484.12 172.842H485.003C485.122 172.842 485.181 172.783 485.181 172.657V162.233C485.181 162.115 485.122 162.055 485.003 162.055H484.12ZM487.488 162.055C487.362 162.055 487.303 162.115 487.303 162.233V172.657C487.303 172.783 487.362 172.842 487.488 172.842H488.371C488.49 172.842 488.549 172.783 488.549 172.657V162.233C488.549 162.115 488.49 162.055 488.371 162.055H487.488Z" fill="#A8A8A8"/>
<defs>
<filter id="filter0_b_0_231" x="-63.1997" y="-62.9307" width="276.886" height="276.886" filterUnits="userSpaceOnUse" color-interpolation-filters="sRGB">
<feFlood flood-opacity="0" result="BackgroundImageFix"/>
<feGaussianBlur in="BackgroundImageFix" stdDeviation="31.8045"/>
<feComposite in2="SourceAlpha" operator="in" result="effect1_backgroundBlur_0_231"/>
<feBlend mode="normal" in="SourceGraphic" in2="effect1_backgroundBlur_0_231" result="shape"/>
</filter>
<filter id="filter1_di_0_231" x="26.6133" y="30.6118" width="112.224" height="101.026" filterUnits="userSpaceOnUse" color-interpolation-filters="sRGB">
<feFlood flood-opacity="0" result="BackgroundImageFix"/>
<feColorMatrix in="SourceAlpha" type="matrix" values="0 0 0 0 0 0 0 0 0 0 0 0 0 0 0 0 0 0 127 0" result="hardAlpha"/>
<feOffset dy="7.4834"/>
<feGaussianBlur stdDeviation="5.61255"/>
<feComposite in2="hardAlpha" operator="out"/>
<feColorMatrix type="matrix" values="0 0 0 0 0.8 0 0 0 0 0.8 0 0 0 0 0.8 0 0 0 0.49 0"/>
<feBlend mode="normal" in2="BackgroundImageFix" result="effect1_dropShadow_0_231"/>
<feBlend mode="normal" in="SourceGraphic" in2="effect1_dropShadow_0_231" result="shape"/>
<feColorMatrix in="SourceAlpha" type="matrix" values="0 0 0 0 0 0 0 0 0 0 0 0 0 0 0 0 0 0 127 0" result="hardAlpha"/>
<feOffset dx="26.1919" dy="-7.4834"/>
<feGaussianBlur stdDeviation="13.096"/>
<feComposite in2="hardAlpha" operator="arithmetic" k2="-1" k3="1"/>
<feColorMatrix type="matrix" values="0 0 0 0 0.895833 0 0 0 0 0.884635 0 0 0 0 0.884635 0 0 0 0.25 0"/>
<feBlend mode="normal" in2="shape" result="effect2_innerShadow_0_231"/>
</filter>
<filter id="filter2_di_0_231" x="190.615" y="37.365" width="177.679" height="123.817" filterUnits="userSpaceOnUse" color-interpolation-filters="sRGB">
<feFlood flood-opacity="0" result="BackgroundImageFix"/>
<feColorMatrix in="SourceAlpha" type="matrix" values="0 0 0 0 0 0 0 0 0 0 0 0 0 0 0 0 0 0 127 0" result="hardAlpha"/>
<feOffset dy="9.17166"/>
<feGaussianBlur stdDeviation="6.87875"/>
<feComposite in2="hardAlpha" operator="out"/>
<feColorMatrix type="matrix" values="0 0 0 0 0.8 0 0 0 0 0.8 0 0 0 0 0.8 0 0 0 0.49 0"/>
<feBlend mode="normal" in2="BackgroundImageFix" result="effect1_dropShadow_0_231"/>
<feBlend mode="normal" in="SourceGraphic" in2="effect1_dropShadow_0_231" result="shape"/>
<feColorMatrix in="SourceAlpha" type="matrix" values="0 0 0 0 0 0 0 0 0 0 0 0 0 0 0 0 0 0 127 0" result="hardAlpha"/>
<feOffset dx="32.1008" dy="-9.17166"/>
<feGaussianBlur stdDeviation="16.0504"/>
<feComposite in2="hardAlpha" operator="arithmetic" k2="-1" k3="1"/>
<feColorMatrix type="matrix" values="0 0 0 0 0.895833 0 0 0 0 0.884635 0 0 0 0 0.884635 0 0 0 0.25 0"/>
<feBlend mode="normal" in2="shape" result="effect2_innerShadow_0_231"/>
</filter>
<filter id="filter3_b_0_231" x="326.878" y="-62.9307" width="276.886" height="276.886" filterUnits="userSpaceOnUse" color-interpolation-filters="sRGB">
<feFlood flood-opacity="0" result="BackgroundImageFix"/>
<feGaussianBlur in="BackgroundImageFix" stdDeviation="31.8045"/>
<feComposite in2="SourceAlpha" operator="in" result="effect1_backgroundBlur_0_231"/>
<feBlend mode="normal" in="SourceGraphic" in2="effect1_backgroundBlur_0_231" result="shape"/>
</filter>
<filter id="filter4_di_0_231" x="409.162" y="23.1284" width="127.281" height="115.993" filterUnits="userSpaceOnUse" color-interpolation-filters="sRGB">
<feFlood flood-opacity="0" result="BackgroundImageFix"/>
<feColorMatrix in="SourceAlpha" type="matrix" values="0 0 0 0 0 0 0 0 0 0 0 0 0 0 0 0 0 0 127 0" result="hardAlpha"/>
<feOffset dy="7.4834"/>
<feGaussianBlur stdDeviation="5.61255"/>
<feComposite in2="hardAlpha" operator="out"/>
<feColorMatrix type="matrix" values="0 0 0 0 0.8 0 0 0 0 0.8 0 0 0 0 0.8 0 0 0 0.49 0"/>
<feBlend mode="normal" in2="BackgroundImageFix" result="effect1_dropShadow_0_231"/>
<feBlend mode="normal" in="SourceGraphic" in2="effect1_dropShadow_0_231" result="shape"/>
<feColorMatrix in="SourceAlpha" type="matrix" values="0 0 0 0 0 0 0 0 0 0 0 0 0 0 0 0 0 0 127 0" result="hardAlpha"/>
<feOffset dx="26.1919" dy="-7.4834"/>
<feGaussianBlur stdDeviation="13.096"/>
<feComposite in2="hardAlpha" operator="arithmetic" k2="-1" k3="1"/>
<feColorMatrix type="matrix" values="0 0 0 0 0.895833 0 0 0 0 0.884635 0 0 0 0 0.884635 0 0 0 0.25 0"/>
<feBlend mode="normal" in2="shape" result="effect2_innerShadow_0_231"/>
</filter>
</defs>
</svg>
