<svg width="134" height="34" viewBox="0 0 134 34" fill="none" xmlns="http://www.w3.org/2000/svg">
<g clip-path="url(#clip0_0_913)">
<path d="M36.9983 26.6772H29.0603V6.02734H35.9866C38.2315 6.02734 39.9727 6.51734 41.21 7.49733C42.4475 8.47732 43.0632 9.85672 43.0574 11.6356C43.0499 12.4187 42.8801 13.1912 42.5595 13.9008C42.4006 14.2585 42.2088 14.5995 41.9867 14.9192C41.8769 15.0758 41.7585 15.2287 41.6384 15.3744C41.5183 15.5201 41.3389 15.6353 41.2902 15.7774C41.56 15.988 41.8717 16.1373 42.1399 16.3568C43.3586 17.3698 44.2536 18.9927 44.2536 20.6516C44.2536 22.5192 43.61 23.9903 42.3227 25.0651C41.0354 26.1399 39.2606 26.6772 36.9983 26.6772ZM34.1253 10.4391V14.3722H35.7132C36.4422 14.3722 37.0075 14.2025 37.4091 13.863C37.6105 13.6877 37.7698 13.4664 37.8743 13.2166C37.9788 12.9668 38.0259 12.6954 38.0116 12.4237C38.0271 12.1494 37.9817 11.8752 37.8787 11.622C37.7758 11.3687 37.6181 11.1432 37.4179 10.9627C37.0174 10.6136 36.4521 10.4391 35.722 10.4391H34.1253ZM34.1253 18.2748V22.2709H36.6431C37.3558 22.2709 37.9216 22.0874 38.3406 21.7203C38.5458 21.5428 38.7091 21.3193 38.818 21.0667C38.9269 20.8142 38.9787 20.5393 38.9692 20.263C38.9761 19.9897 38.9217 19.7186 38.8102 19.4707C38.6987 19.2229 38.5332 19.005 38.3267 18.8343C37.8469 18.4491 37.25 18.2533 36.6431 18.282L34.1253 18.2748Z" fill="#000C11"/>
<path d="M46.488 26.6764V12.0234H51.5809V26.6764H46.488Z" fill="#000C11"/>
<path d="M67.0015 12.0227L61.1982 22.5464H66.8102V26.6757H53.6697L59.4732 16.1519H54.0528V12.0137L67.0015 12.0227Z" fill="#000C11"/>
<path d="M75.8719 27.0171C73.591 27.0171 71.6928 26.3004 70.1783 24.867C68.6633 23.4336 67.906 21.6134 67.906 19.4063C67.906 17.2389 68.627 15.4096 70.0685 13.9187C70.733 13.2026 71.5327 12.6349 72.4178 12.2505C73.303 11.8662 74.2555 11.6733 75.2153 11.684C77.5867 11.684 79.3706 12.5044 80.5659 14.1454C81.7618 15.7862 82.2225 17.9927 81.9485 20.7648H72.7206C72.9713 21.4207 73.4558 21.952 74.0749 22.2492C74.7224 22.5802 75.5487 22.7457 76.5527 22.7457C77.3196 22.7404 78.0831 22.6358 78.825 22.4345C79.5251 22.2603 80.1986 21.984 80.8234 21.614V25.9124C80.1245 26.3013 79.3717 26.578 78.5913 26.7328C77.6971 26.9249 76.7853 27.0201 75.8719 27.0171ZM75.1599 15.7935C74.6403 15.7842 74.1321 15.9476 73.7093 16.2594C73.2685 16.5994 72.9351 17.0673 72.7517 17.6035H77.3224C77.2709 17.1004 77.0298 16.6384 76.6517 16.317C76.2335 15.9587 75.7026 15.7724 75.1599 15.7935Z" fill="#000C11"/>
<path d="M127.117 27.0171C124.834 27.0171 122.935 26.3004 121.421 24.867C119.908 23.4336 119.15 21.6134 119.149 19.4063C119.149 17.2388 119.87 15.4096 121.312 13.9187C121.977 13.2027 122.776 12.6351 123.662 12.2508C124.547 11.8665 125.499 11.6736 126.459 11.684C128.832 11.684 130.617 12.5045 131.811 14.1453C133.006 15.7863 133.466 17.9928 133.193 20.7648H123.965C124.217 21.4205 124.702 21.9517 125.322 22.2491C125.97 22.5802 126.795 22.7457 127.799 22.7457C128.563 22.7396 129.324 22.6351 130.063 22.4344C130.763 22.2607 131.436 21.9844 132.06 21.614V25.9124C131.361 26.3017 130.609 26.5783 129.829 26.7328C128.937 26.9243 128.028 27.0195 127.117 27.0171ZM126.405 15.7934C125.885 15.7839 125.376 15.9473 124.952 16.2595C124.512 16.5999 124.179 17.0676 123.995 17.6035H128.567C128.515 17.1006 128.274 16.6389 127.897 16.317C127.478 15.9588 126.948 15.7724 126.405 15.7934Z" fill="#000C11"/>
<path d="M108.01 11.6824C107.127 11.668 106.252 11.8472 105.441 12.2082C104.631 12.5693 103.904 13.1039 103.308 13.7768C102.021 15.1718 101.378 16.8973 101.378 18.9532C101.378 20.9924 102.025 22.7083 103.321 24.1009C103.915 24.7704 104.639 25.3029 105.446 25.6638C106.252 26.0246 107.124 26.2057 108.003 26.1952C109.362 26.2013 110.687 25.7546 111.781 24.9213V25.488C111.791 25.9027 111.7 26.3133 111.515 26.6817C111.331 27.05 111.06 27.3642 110.726 27.5949C110.029 28.1131 109.112 28.3722 107.974 28.3722C107.056 28.3826 106.142 28.2442 105.265 27.962C104.447 27.6902 103.686 27.2631 103.02 26.7025V31.7656C103.721 32.1699 104.479 32.4606 105.265 32.6274C106.19 32.8464 107.136 32.9556 108.084 32.9531C110.713 32.9531 112.834 32.2604 114.448 30.875C116.063 29.4896 116.871 27.5704 116.872 25.1174V11.6824H108.01ZM111.993 18.5448C111.993 18.9348 111.919 19.3211 111.775 19.6814C111.631 20.0418 111.419 20.3693 111.152 20.6451C110.886 20.921 110.569 21.1399 110.22 21.2892C109.872 21.4385 109.498 21.5153 109.121 21.5153H108.346C108.225 21.5159 108.104 21.5026 107.985 21.4757C107.651 21.4017 107.345 21.2265 107.107 20.9724C106.87 20.7183 106.71 20.3969 106.65 20.049C106.631 19.9439 106.621 19.8373 106.622 19.7305V18.444C106.622 18.1179 106.684 17.7949 106.804 17.4936C106.925 17.1922 107.102 16.9184 107.325 16.6878C107.548 16.4572 107.813 16.2743 108.105 16.1496C108.397 16.0249 108.709 15.9608 109.025 15.9611H111.995L111.993 18.5448Z" fill="#000C11"/>
<path d="M94.022 5.17773V12.9846C93.5076 12.5588 92.9229 12.2332 92.2964 12.0238C91.6252 11.7947 90.9223 11.6799 90.2154 11.6838C89.3127 11.6677 88.4179 11.8556 87.5927 12.2345C86.7676 12.6134 86.033 13.174 85.4398 13.8771C84.1534 15.338 83.5105 17.1625 83.5105 19.3503C83.5105 21.5382 84.1534 23.3627 85.4398 24.8236C86.033 25.5268 86.7676 26.0874 87.5927 26.4662C88.4179 26.8451 89.3127 27.033 90.2154 27.0169H94.022H99.1128V5.17773H94.022ZM94.022 22.5782H90.8357C90.1231 22.5782 89.4406 22.2859 88.9369 21.7656C88.4332 21.2453 88.1508 20.5396 88.1508 19.8038V19.2856C88.1508 18.5501 88.4343 17.8449 88.9375 17.3249C89.4412 16.805 90.1237 16.513 90.8357 16.513H91.3371C92.0491 16.513 92.7316 16.8053 93.2353 17.3256C93.739 17.8459 94.022 18.5516 94.022 19.2874V22.5782Z" fill="#000C11"/>
<path d="M20.6163 17.4802L13.4375 15.0248L1.29468 10.8672V27.362L10.3461 30.4652C11.1683 30.7468 12.0482 30.8093 12.9011 30.6466C13.754 30.4839 14.5512 30.1015 15.2161 29.5362L21.8103 23.9476C22.3179 23.518 22.7033 22.9592 22.927 22.3285C23.1507 21.6978 23.2045 21.0181 23.0829 20.3593C22.9612 19.7006 22.6686 19.0865 22.2351 18.5805C21.8015 18.0744 21.2428 17.6947 20.6163 17.4802Z" fill="#2898A4"/>
<path d="M13.049 12.8746L17.5092 14.3211L21.806 10.905C22.3139 10.5026 22.6999 9.97883 22.9244 9.38757C23.1488 8.79631 23.2035 8.15885 23.0829 7.5408C22.9622 6.92275 22.6707 6.34643 22.238 5.87105C21.8055 5.39569 21.2475 5.03847 20.6215 4.83613L12.4345 2.22577L7.84535 0.750955C7.09936 0.509735 6.30367 0.441098 5.52424 0.550738C4.74479 0.660377 4.00409 0.945134 3.36355 1.38139C2.72301 1.81763 2.20111 2.39281 1.84114 3.05919C1.48116 3.72557 1.2935 4.46395 1.2937 5.21308V9.10036L13.049 12.8746Z" fill="#FF7372"/>
</g>
<defs>
<clipPath id="clip0_0_913">
<rect width="133" height="33" fill="white" transform="translate(0.781982 0.5)"/>
</clipPath>
</defs>
</svg>